<svg xmlns="http://www.w3.org/2000/svg" viewBox="0 0 100 100">
  <defs>
    <linearGradient id="grad1" x1="0%" y1="0%" x2="100%" y2="100%">
      <stop offset="0%" style="stop-color:#0ea5e9;stop-opacity:1" />
      <stop offset="100%" style="stop-color:#0284c7;stop-opacity:1" />
    </linearGradient>
    <linearGradient id="grad2" x1="0%" y1="0%" x2="100%" y2="100%">
      <stop offset="0%" style="stop-color:#10b981;stop-opacity:1" />
      <stop offset="100%" style="stop-color:#059669;stop-opacity:1" />
    </linearGradient>
    <filter id="shadow">
      <feDropShadow dx="0" dy="2" stdDeviation="3" flood-opacity="0.3"/>
    </filter>
  </defs>
  
  <!-- Background -->
  <rect width="100" height="100" rx="22" fill="url(#grad1)"/>
  
  <!-- PDF Document -->
  <g filter="url(#shadow)">
    <path d="M35 20 h25 l10 10 v45 a3 3 0 0 1 -3 3 h-32 a3 3 0 0 1 -3 -3 v-52 a3 3 0 0 1 3 -3 z" fill="white"/>
    <path d="M60 20 v10 h10" fill="#e0f2fe" stroke="#0ea5e9" stroke-width="1"/>
  </g>
  
  <!-- PDF Text Lines -->
  <line x1="40" y1="40" x2="62" y2="40" stroke="#0284c7" stroke-width="2" stroke-linecap="round"/>
  <line x1="40" y1="48" x2="62" y2="48" stroke="#0284c7" stroke-width="2" stroke-linecap="round"/>
  <line x1="40" y1="56" x2="55" y2="56" stroke="#0284c7" stroke-width="2" stroke-linecap="round"/>
  
  <!-- Security Shield Badge -->
  <g filter="url(#shadow)">
    <path d="M50 62 c0 0 -12 4 -12 12 s4 12 12 16 c8 -4 12 -8 12 -16 s-12 -12 -12 -12 z" fill="url(#grad2)"/>
    <path d="M46 78 l3 3 l6 -8" stroke="white" stroke-width="2.5" stroke-linecap="round" stroke-linejoin="round" fill="none"/>
  </g>
</svg>
